<?xml version="1.0" encoding="UTF-8" standalone="no"?>
<!-- Created with Inkscape (http://www.inkscape.org/) -->


<svg width="342.23999" height="220.74667" xmlns="http://www.w3.org/2000/svg"
     version="1.1">
 <defs id="defs6">
  <clipPath id="clipPath28" clipPathUnits="userSpaceOnUse">
   <path id="path26" d="m806.375,1473.61c-344.516,0.01 -624.391,-279.87 -624.391,-624.383c0.004,-344.836 279.547,-624.375 624.383,-624.375l0,42.57c0,18.129 -14.125,33.117 -32.222,34.168c-136.247,7.832 -263.114,65.301 -359.59,163.699c-98.516,100.473 -154.879,235.891 -156.711,376.59c-1.973,151.711 57.172,294.511 165.836,400.391c100.781,98.21 236.39,154.11 377.097,155.51c148.614,1.47 288.563,-55.72 393.493,-160.65c95.99,-95.99 152.02,-221.29 159.75,-355.712c1.04,-18.086 16.05,-32.188 34.16,-32.188l42.57,0c0,344.84 -279.54,624.38 -624.375,624.38zm-6.301,-182.39c-238.078,-3.31 -432.379,-197.61 -435.691,-435.693c-3.438,-247.007 195.762,-448.328 441.984,-448.328l0,43.012c0,17.961 -13.89,32.617 -31.789,34.168c-193.566,16.723 -344.555,184.668 -333.898,384.773c9.886,185.668 160.101,335.878 345.765,345.768c200.106,10.66 368.055,-140.33 384.775,-333.897c1.55,-17.898 16.21,-31.793 34.17,-31.793l43.01,0c0,246.22 -201.32,445.43 -448.326,441.99zm-26.219,-1171.841c-182.933,7.961 -353.777,82.98 -484.07,213.269c-138.496,138.5 -215.8123,327.903 -213.9412,523.754c1.8164,190.068 75.7732,368.628 208.8862,504.308c137.168,139.82 325.77,219.08 521.637,219.08c195.143,0 378.603,-75.99 516.583,-213.97c130.32,-130.32 205.34,-301.2 213.27,-484.179c0.79,-18.184 16.02,-32.411 34.22,-32.411l42.3,0c0,445.34 -361.02,806.36 -806.361,806.37c-444.934,0.01 -806.38291,-361.44 -806.379,-806.373c0.00391,-445.336 361.023,-806.3676 806.367,-806.3676l0,42.3203c0,18.2423 -14.285,33.4103 -32.512,34.1993zm1578.595,451.699l30.68,90.918c2.29,5.805 4.73,12.672 7.33,20.613c2.59,7.934 5.04,16.563 7.33,25.879c2.59,-9.164 5.19,-17.672 7.78,-25.535c2.6,-7.863 5.04,-14.699 7.34,-20.496l30.91,-91.379l-91.37,0zm85.19,206.113l-79.24,0l-129.17,-333.671l60.46,0c6.41,0 11.79,1.71 16.15,5.152c4.35,3.43 7.36,7.289 9.04,11.558l19.7,58.168l126.88,0l19.69,-58.168c2.14,-4.878 5.27,-8.89 9.39,-12.019c4.12,-3.133 9.54,-4.691 16.26,-4.691l60,0l-129.16,333.671zm-489.88,-40.765c6.26,6.414 13.39,12.371 21.41,17.867c8.02,5.496 16.83,10.191 26.45,14.086c9.62,3.891 20,6.941 31.15,9.156c11.14,2.215 22.98,3.32 35.5,3.32c24.58,0 47.1,-4.199 67.56,-12.593c20.45,-8.399 38.01,-20.153 52.67,-35.27c14.66,-15.113 26.03,-33.094 34.12,-53.929c8.1,-20.844 12.14,-43.711 12.14,-68.594c0,-24.43 -3.74,-47.059 -11.22,-67.899c-7.48,-20.84 -18.21,-38.859 -32.18,-54.05c-13.97,-15.2 -30.99,-27.098 -51.07,-35.731c-20.08,-8.617 -42.79,-12.937 -68.13,-12.937c-27.64,0 -51.57,4.468 -71.8,13.398c-20.23,8.93 -37.06,22.172 -50.5,39.738l30.69,32.293c1.68,1.668 3.44,2.86 5.27,3.539c1.83,0.692 3.67,1.039 5.5,1.039c2.29,0 4.5,-0.5 6.64,-1.488c2.13,-1 4.12,-2.262 5.95,-3.781c4.58,-4.121 9.08,-7.52 13.52,-10.192c4.42,-2.679 9.16,-4.808 14.19,-6.418c5.04,-1.601 10.43,-2.742 16.15,-3.429c5.72,-0.692 12.17,-1.031 19.35,-1.031c10.54,0 20.53,1.75 30,5.261c9.47,3.52 18.02,8.707 25.65,15.578c7.64,6.871 14.12,15.34 19.47,25.422c5.34,10.078 9.08,21.68 11.22,34.809l-141.99,0l0,55.422l141.53,0c-2.29,12.367 -5.92,23.32 -10.87,32.867c-4.97,9.539 -11.08,17.594 -18.33,24.16c-7.25,6.563 -15.53,11.524 -24.84,14.887c-9.32,3.351 -19.39,5.039 -30.24,5.039c-12.21,0 -22.09,-1.262 -29.65,-3.781c-7.56,-2.52 -13.9,-5.27 -19.01,-8.246c-5.12,-2.977 -9.47,-5.727 -13.06,-8.243c-3.59,-2.519 -7.44,-3.777 -11.56,-3.777c-4.12,0 -7.33,0.875 -9.62,2.633c-2.29,1.75 -4.28,3.699 -5.95,5.84l-26.11,35.035zm-111.35,-108.555c-8.86,-9.621 -23.37,-14.43 -43.52,-14.43l-40.3,0l0,105.813l40.3,0c9.77,0 18.21,-1.227 25.31,-3.664c7.1,-2.445 12.98,-5.922 17.63,-10.422c4.66,-4.504 8.14,-9.887 10.42,-16.148c2.29,-6.262 3.44,-13.207 3.44,-20.836c0,-17.254 -4.43,-30.696 -13.28,-40.313zm82.9,83.367c-5.19,13.282 -13.25,24.805 -24.16,34.582c-10.92,9.766 -24.81,17.438 -41.68,23.016c-16.87,5.57 -37.07,8.355 -60.58,8.355l-117.71,0l0,-333.671l77.41,0l0,111.531l40.3,0c23.05,0 43.02,2.777 59.89,8.359c16.87,5.57 30.8,13.309 41.8,23.238c10.99,9.93 19.15,21.832 24.5,35.731c5.34,13.891 8.02,29.16 8.02,45.805c0,15.414 -2.6,29.769 -7.79,43.054zm-309.28,65.957l0,-333.675l-77.86,0l0,186.871c0,8.711 0.26,17.898 0.8,27.597c0.53,9.7 1.56,20.043 3.09,31.032c-3.51,-9.77 -7.33,-18.817 -11.45,-27.137c-4.12,-8.324 -8.17,-15.613 -12.14,-21.871l-101.45,-173.364c-1.68,-2.75 -3.71,-5.5 -6.07,-8.25c-2.37,-2.75 -5.01,-5.226 -7.9,-7.437c-2.9,-2.211 -6.04,-4.012 -9.39,-5.383c-3.36,-1.379 -6.87,-2.058 -10.54,-2.058l-58.4,0l0,333.675l77.87,0l0,-186.656c0,-8.699 -0.23,-17.898 -0.69,-27.59c-0.46,-9.699 -1.53,-20.039 -3.2,-31.027c3.51,9.609 7.32,18.578 11.45,26.906c4.12,8.32 8.16,15.613 12.14,21.871l101.45,173.364c1.68,2.746 3.7,5.496 6.07,8.246c2.36,2.746 5,5.226 7.9,7.441c2.9,2.211 6.03,4.008 9.39,5.383c3.36,1.375 6.87,2.062 10.53,2.062l58.4,0zm-356.45,0l0,-333.675l-68.24,0l0,191.91c0,4.429 0.11,9.242 0.34,14.429c0.23,5.192 0.65,10.457 1.26,15.801l-88.63,-171.531c-2.75,-5.348 -6.45,-9.391 -11.11,-12.141c-4.65,-2.75 -9.96,-4.117 -15.91,-4.117l-10.54,0c-5.95,0 -11.26,1.367 -15.92,4.117c-4.65,2.75 -8.35,6.793 -11.1,12.141l-88.632,171.988c0.457,-5.496 0.836,-10.879 1.144,-16.137c0.309,-5.269 0.461,-10.121 0.461,-14.55l0,-191.91l-68.25,0l0,333.675l59.086,0c3.356,0 6.297,-0.082 8.82,-0.23c2.516,-0.152 4.77,-0.613 6.754,-1.375c1.981,-0.766 3.782,-1.945 5.379,-3.551c1.606,-1.601 3.168,-3.855 4.696,-6.758l85.882,-169.242c3.05,-5.801 5.99,-11.828 8.82,-18.09c2.82,-6.258 5.53,-12.668 8.13,-19.238c2.59,6.719 5.3,13.277 8.13,19.699c2.82,6.41 5.84,12.512 9.04,18.32l85.66,168.551c1.52,2.903 3.09,5.157 4.69,6.758c1.61,1.606 3.4,2.785 5.38,3.551c1.99,0.762 4.24,1.223 6.76,1.375c2.52,0.148 5.46,0.23 8.82,0.23l59.08,0z"/>
  </clipPath>
  <clipPath id="clipPath48" clipPathUnits="userSpaceOnUse">
   <path id="path46" d="m656.281,971.512c0.012,5.859 4.739,10.582 10.578,10.566c29.719,-0.07 53.95,24.142 54.016,53.972c0.016,5.86 4.742,10.59 10.582,10.58l166.324,-0.4c5.84,-0.01 10.543,-4.76 10.532,-10.62c-0.067,-29.83 24.054,-54.157 53.773,-54.227c5.84,-0.012 10.543,-4.758 10.68,-10.617l-0.125,-54.887l-80.243,0.191l-53.878,-93.371l-58.09,172.637l-60.114,-113.363l-64.238,0.148l0.203,89.391zm195.586,-280.989l-32.043,-23.941c-3.824,-2.543 -8.39,-2.383 -11.976,0.031l-102.379,77.231c-31.09,21.566 -49.574,57 -49.489,94.871l0.067,29.609l72.496,-0.172l50.426,89.938l58.101,-169.199l63.555,113.359l71.984,-0.172l-0.144,-64.109c-0.027,-12.414 -2.086,-24.551 -5.891,-36.028c0.551,-0.187 1.156,-0.304 1.68,-0.519c3.086,-1.281 5.887,-3.262 8.383,-5.949c0.715,-0.77 1.426,-1.653 2.129,-2.598c4.808,13.281 7.422,27.438 7.453,41.945l0.324,143.563c-0.148,6.336 -5.262,11.469 -11.609,11.48c-32.301,0.078 -58.524,26.377 -58.45,58.627c0.016,6.33 -5.097,11.47 -11.445,11.48l-180.793,0.42c-6.344,0.02 -11.48,-5.09 -11.496,-11.42c-0.074,-32.25 -26.414,-58.427 -58.715,-58.349c-6.344,0.016 -11.484,-5.094 -11.5,-11.426l-0.32,-143.566c-0.094,-40.941 19.996,-79.246 53.793,-102.559l111.281,-83.5c3.899,-2.609 8.863,-2.781 13.016,-0.031l31.562,23.457l0,17.527z"/>
  </clipPath>
  <linearGradient id="linearGradient38" spreadMethod="pad" y2="-0.04309" x2="0.23207" y1="0.81179" x1="0.68277">
   <stop stop-color="#2a607e" id="stop30" offset="0"/>
   <stop stop-color="#1a4858" id="stop32" offset="0.68378"/>
   <stop stop-color="#1a4858" id="stop34" offset="0.81503"/>
   <stop stop-color="#153b49" id="stop36" offset="1"/>
  </linearGradient>
  <linearGradient id="linearGradient58" spreadMethod="pad" y2="0.22456" x2="0.12886" y1="0.94453" x1="0.8532">
   <stop stop-color="#2a607e" id="stop50" offset="0"/>
   <stop stop-color="#1a4858" id="stop52" offset="0.68378"/>
   <stop stop-color="#1a4858" id="stop54" offset="0.81503"/>
   <stop stop-color="#153b49" id="stop56" offset="1"/>
  </linearGradient>
  <linearGradient id="linearGradient66" spreadMethod="pad" y2="-2.94898" x2="0.12274" y1="-3.68751" x1="0.86575">
   <stop stop-color="#2a607e" id="stop62" offset="0"/>
   <stop stop-color="#1a4858" id="stop64" offset="1"/>
  </linearGradient>
 </defs>
 <g>
  <title>Layer 1</title>
  <g transform="matrix(1.3333333,0,0,-1.3333333,0,220.74667)"   id="g8">
   <g transform="scale(0.1)" id="g10">
    <g transform="scale(10)" id="g12">
     <text fill-rule="nonzero" fill="#231f20" font-family="PFSquareSansPro" font-size="13.2668px" font-weight="300" id="text20" transform="matrix(1,0,0,-1,86.4063,29.7441)" xml:space="preserve">
      <tspan id="tspan14"  y="0" x="0 7.1318431 14.22461 20.195799 26.359371 33.662579 40.924797 47.087883 53.577141 60.879875">Российский</tspan>
      <tspan id="tspan16"  y="13.2672" x="0 6.0376 13.143074 19.247068 26.456047 33.487289 40.847641 47.96579 53.996067 61.260712 67.980438 75.040009 81.20311 87.692368 94.995087">технологический</tspan>
      <tspan id="tspan18"  y="26.5332" x="0 6.5483398 13.798341 21.114744 28.008301 34.959965 42.191418 48.355476 55.739265 61.776371 68.802742">университет</tspan>
     </text>
    </g>
    <g id="g22">
     <g clip-path="url(#clipPath28)" id="g24">
      <path fill-rule="nonzero" fill="url(#linearGradient38)" id="path40" d="m806.375,1473.61c-344.516,0.01 -624.391,-279.87 -624.391,-624.383c0.004,-344.836 279.547,-624.375 624.383,-624.375l0,42.57c0,18.129 -14.125,33.117 -32.222,34.168c-136.247,7.832 -263.114,65.301 -359.59,163.699c-98.516,100.473 -154.879,235.891 -156.711,376.59c-1.973,151.711 57.172,294.511 165.836,400.391c100.781,98.21 236.39,154.11 377.097,155.51c148.614,1.47 288.563,-55.72 393.493,-160.65c95.99,-95.99 152.02,-221.29 159.75,-355.712c1.04,-18.086 16.05,-32.188 34.16,-32.188l42.57,0c0,344.84 -279.54,624.38 -624.375,624.38zm-6.301,-182.39c-238.078,-3.31 -432.379,-197.61 -435.691,-435.693c-3.438,-247.007 195.762,-448.328 441.984,-448.328l0,43.012c0,17.961 -13.89,32.617 -31.789,34.168c-193.566,16.723 -344.555,184.668 -333.898,384.773c9.886,185.668 160.101,335.878 345.765,345.768c200.106,10.66 368.055,-140.33 384.775,-333.897c1.55,-17.898 16.21,-31.793 34.17,-31.793l43.01,0c0,246.22 -201.32,445.43 -448.326,441.99zm-26.219,-1171.841c-182.933,7.961 -353.777,82.98 -484.07,213.269c-138.496,138.5 -215.8123,327.903 -213.9412,523.754c1.8164,190.068 75.7732,368.628 208.8862,504.308c137.168,139.82 325.77,219.08 521.637,219.08c195.143,0 378.603,-75.99 516.583,-213.97c130.32,-130.32 205.34,-301.2 213.27,-484.179c0.79,-18.184 16.02,-32.411 34.22,-32.411l42.3,0c0,445.34 -361.02,806.36 -806.361,806.37c-444.934,0.01 -806.38291,-361.44 -806.379,-806.373c0.00391,-445.336 361.023,-806.3676 806.367,-806.3676l0,42.3203c0,18.2423 -14.285,33.4103 -32.512,34.1993zm1578.595,451.699l30.68,90.918c2.29,5.805 4.73,12.672 7.33,20.613c2.59,7.934 5.04,16.563 7.33,25.879c2.59,-9.164 5.19,-17.672 7.78,-25.535c2.6,-7.863 5.04,-14.699 7.34,-20.496l30.91,-91.379l-91.37,0zm85.19,206.113l-79.24,0l-129.17,-333.671l60.46,0c6.41,0 11.79,1.71 16.15,5.152c4.35,3.43 7.36,7.289 9.04,11.558l19.7,58.168l126.88,0l19.69,-58.168c2.14,-4.878 5.27,-8.89 9.39,-12.019c4.12,-3.133 9.54,-4.691 16.26,-4.691l60,0l-129.16,333.671zm-489.88,-40.765c6.26,6.414 13.39,12.371 21.41,17.867c8.02,5.496 16.83,10.191 26.45,14.086c9.62,3.891 20,6.941 31.15,9.156c11.14,2.215 22.98,3.32 35.5,3.32c24.58,0 47.1,-4.199 67.56,-12.593c20.45,-8.399 38.01,-20.153 52.67,-35.27c14.66,-15.113 26.03,-33.094 34.12,-53.929c8.1,-20.844 12.14,-43.711 12.14,-68.594c0,-24.43 -3.74,-47.059 -11.22,-67.899c-7.48,-20.84 -18.21,-38.859 -32.18,-54.05c-13.97,-15.2 -30.99,-27.098 -51.07,-35.731c-20.08,-8.617 -42.79,-12.937 -68.13,-12.937c-27.64,0 -51.57,4.468 -71.8,13.398c-20.23,8.93 -37.06,22.172 -50.5,39.738l30.69,32.293c1.68,1.668 3.44,2.86 5.27,3.539c1.83,0.692 3.67,1.039 5.5,1.039c2.29,0 4.5,-0.5 6.64,-1.488c2.13,-1 4.12,-2.262 5.95,-3.781c4.58,-4.121 9.08,-7.52 13.52,-10.192c4.42,-2.679 9.16,-4.808 14.19,-6.418c5.04,-1.601 10.43,-2.742 16.15,-3.429c5.72,-0.692 12.17,-1.031 19.35,-1.031c10.54,0 20.53,1.75 30,5.261c9.47,3.52 18.02,8.707 25.65,15.578c7.64,6.871 14.12,15.34 19.47,25.422c5.34,10.078 9.08,21.68 11.22,34.809l-141.99,0l0,55.422l141.53,0c-2.29,12.367 -5.92,23.32 -10.87,32.867c-4.97,9.539 -11.08,17.594 -18.33,24.16c-7.25,6.563 -15.53,11.524 -24.84,14.887c-9.32,3.351 -19.39,5.039 -30.24,5.039c-12.21,0 -22.09,-1.262 -29.65,-3.781c-7.56,-2.52 -13.9,-5.27 -19.01,-8.246c-5.12,-2.977 -9.47,-5.727 -13.06,-8.243c-3.59,-2.519 -7.44,-3.777 -11.56,-3.777c-4.12,0 -7.33,0.875 -9.62,2.633c-2.29,1.75 -4.28,3.699 -5.95,5.84l-26.11,35.035zm-111.35,-108.555c-8.86,-9.621 -23.37,-14.43 -43.52,-14.43l-40.3,0l0,105.813l40.3,0c9.77,0 18.21,-1.227 25.31,-3.664c7.1,-2.445 12.98,-5.922 17.63,-10.422c4.66,-4.504 8.14,-9.887 10.42,-16.148c2.29,-6.262 3.44,-13.207 3.44,-20.836c0,-17.254 -4.43,-30.696 -13.28,-40.313zm82.9,83.367c-5.19,13.282 -13.25,24.805 -24.16,34.582c-10.92,9.766 -24.81,17.438 -41.68,23.016c-16.87,5.57 -37.07,8.355 -60.58,8.355l-117.71,0l0,-333.671l77.41,0l0,111.531l40.3,0c23.05,0 43.02,2.777 59.89,8.359c16.87,5.57 30.8,13.309 41.8,23.238c10.99,9.93 19.15,21.832 24.5,35.731c5.34,13.891 8.02,29.16 8.02,45.805c0,15.414 -2.6,29.769 -7.79,43.054zm-309.28,65.957l0,-333.675l-77.86,0l0,186.871c0,8.711 0.26,17.898 0.8,27.597c0.53,9.7 1.56,20.043 3.09,31.032c-3.51,-9.77 -7.33,-18.817 -11.45,-27.137c-4.12,-8.324 -8.17,-15.613 -12.14,-21.871l-101.45,-173.364c-1.68,-2.75 -3.71,-5.5 -6.07,-8.25c-2.37,-2.75 -5.01,-5.226 -7.9,-7.437c-2.9,-2.211 -6.04,-4.012 -9.39,-5.383c-3.36,-1.379 -6.87,-2.058 -10.54,-2.058l-58.4,0l0,333.675l77.87,0l0,-186.656c0,-8.699 -0.23,-17.898 -0.69,-27.59c-0.46,-9.699 -1.53,-20.039 -3.2,-31.027c3.51,9.609 7.32,18.578 11.45,26.906c4.12,8.32 8.16,15.613 12.14,21.871l101.45,173.364c1.68,2.746 3.7,5.496 6.07,8.246c2.36,2.746 5,5.226 7.9,7.441c2.9,2.211 6.03,4.008 9.39,5.383c3.36,1.375 6.87,2.062 10.53,2.062l58.4,0zm-356.45,0l0,-333.675l-68.24,0l0,191.91c0,4.429 0.11,9.242 0.34,14.429c0.23,5.192 0.65,10.457 1.26,15.801l-88.63,-171.531c-2.75,-5.348 -6.45,-9.391 -11.11,-12.141c-4.65,-2.75 -9.96,-4.117 -15.91,-4.117l-10.54,0c-5.95,0 -11.26,1.367 -15.92,4.117c-4.65,2.75 -8.35,6.793 -11.1,12.141l-88.632,171.988c0.457,-5.496 0.836,-10.879 1.144,-16.137c0.309,-5.269 0.461,-10.121 0.461,-14.55l0,-191.91l-68.25,0l0,333.675l59.086,0c3.356,0 6.297,-0.082 8.82,-0.23c2.516,-0.152 4.77,-0.613 6.754,-1.375c1.981,-0.766 3.782,-1.945 5.379,-3.551c1.606,-1.601 3.168,-3.855 4.696,-6.758l85.882,-169.242c3.05,-5.801 5.99,-11.828 8.82,-18.09c2.82,-6.258 5.53,-12.668 8.13,-19.238c2.59,6.719 5.3,13.277 8.13,19.699c2.82,6.41 5.84,12.512 9.04,18.32l85.66,168.551c1.52,2.903 3.09,5.157 4.69,6.758c1.61,1.606 3.4,2.785 5.38,3.551c1.99,0.762 4.24,1.223 6.76,1.375c2.52,0.148 5.46,0.23 8.82,0.23l59.08,0"/>
     </g>
    </g>
    <g id="g42">
     <g clip-path="url(#clipPath48)" id="g44">
      <path fill-rule="nonzero" fill="url(#linearGradient58)" id="path60" d="m656.281,971.512c0.012,5.859 4.739,10.582 10.578,10.566c29.719,-0.07 53.95,24.142 54.016,53.972c0.016,5.86 4.742,10.59 10.582,10.58l166.324,-0.4c5.84,-0.01 10.543,-4.76 10.532,-10.62c-0.067,-29.83 24.054,-54.157 53.773,-54.227c5.84,-0.012 10.543,-4.758 10.68,-10.617l-0.125,-54.887l-80.243,0.191l-53.878,-93.371l-58.09,172.637l-60.114,-113.363l-64.238,0.148l0.203,89.391zm195.586,-280.989l-32.043,-23.941c-3.824,-2.543 -8.39,-2.383 -11.976,0.031l-102.379,77.231c-31.09,21.566 -49.574,57 -49.489,94.871l0.067,29.609l72.496,-0.172l50.426,89.938l58.101,-169.199l63.555,113.359l71.984,-0.172l-0.144,-64.109c-0.027,-12.414 -2.086,-24.551 -5.891,-36.028c0.551,-0.187 1.156,-0.304 1.68,-0.519c3.086,-1.281 5.887,-3.262 8.383,-5.949c0.715,-0.77 1.426,-1.653 2.129,-2.598c4.808,13.281 7.422,27.438 7.453,41.945l0.324,143.563c-0.148,6.336 -5.262,11.469 -11.609,11.48c-32.301,0.078 -58.524,26.377 -58.45,58.627c0.016,6.33 -5.097,11.47 -11.445,11.48l-180.793,0.42c-6.344,0.02 -11.48,-5.09 -11.496,-11.42c-0.074,-32.25 -26.414,-58.427 -58.715,-58.349c-6.344,0.016 -11.484,-5.094 -11.5,-11.426l-0.32,-143.566c-0.094,-40.941 19.996,-79.246 53.793,-102.559l111.281,-83.5c3.899,-2.609 8.863,-2.781 13.016,-0.031l31.562,23.457l0,17.527"/>
     </g>
    </g>
    <path stroke-miterlimit="10" stroke-width="10" stroke="url(#linearGradient66)" fill="none" id="path68" d="m656.281,971.512c0.012,5.859 4.739,10.582 10.578,10.566c29.719,-0.07 53.95,24.142 54.016,53.972c0.016,5.86 4.742,10.59 10.582,10.58l166.324,-0.4c5.84,-0.01 10.543,-4.76 10.532,-10.62c-0.067,-29.83 24.054,-54.157 53.773,-54.227c5.84,-0.012 10.543,-4.758 10.68,-10.617l-0.125,-54.887l-80.243,0.191l-53.878,-93.371l-58.09,172.637l-60.114,-113.363l-64.238,0.148l0.203,89.391zm195.586,-280.989l-32.043,-23.941c-3.824,-2.543 -8.39,-2.383 -11.976,0.031l-102.379,77.231c-31.09,21.566 -49.574,57 -49.489,94.871l0.067,29.609l72.496,-0.172l50.426,89.938l58.101,-169.199l63.555,113.359l71.984,-0.172l-0.144,-64.109c-0.027,-12.414 -2.086,-24.551 -5.891,-36.028c0.551,-0.187 1.156,-0.304 1.68,-0.519c3.086,-1.281 5.887,-3.262 8.383,-5.949c0.715,-0.77 1.426,-1.653 2.129,-2.598c4.808,13.281 7.422,27.438 7.453,41.945l0.324,143.563c-0.148,6.336 -5.262,11.469 -11.609,11.48c-32.301,0.078 -58.524,26.377 -58.45,58.627c0.016,6.33 -5.097,11.47 -11.445,11.48l-180.793,0.42c-6.344,0.02 -11.48,-5.09 -11.496,-11.42c-0.074,-32.25 -26.414,-58.427 -58.715,-58.349c-6.344,0.016 -11.484,-5.094 -11.5,-11.426l-0.32,-143.566c-0.094,-40.941 19.996,-79.246 53.793,-102.559l111.281,-83.5c3.899,-2.609 8.863,-2.781 13.016,-0.031l31.562,23.457l0,17.527z"/>
   </g>
  </g>
  <text transform="matrix(0.758018, 0, 0, 1, -38.475, 0)" xml:space="preserve" text-anchor="start" font-family="'Ibarra Real Nova'" font-size="24" id="svg_1" y="33.87332" x="313.95075" stroke-width="0" stroke="#000" fill="#000000">БСБО-02-23 gang</text>
 </g>
</svg>