<?xml version="1.0" encoding="UTF-8" standalone="no"?>
<!-- Created with Inkscape (http://www.inkscape.org/) -->

<svg
   version="1.1"
   id="svg2"
   width="342.23999"
   height="220.74667"
   viewBox="0 0 342.23999 220.74667"
   sodipodi:docname="KBSP colour.eps"
   xmlns:inkscape="http://www.inkscape.org/namespaces/inkscape"
   xmlns:sodipodi="http://sodipodi.sourceforge.net/DTD/sodipodi-0.dtd"
   xmlns="http://www.w3.org/2000/svg"
   xmlns:svg="http://www.w3.org/2000/svg">
  <defs
     id="defs6">
    <clipPath
       clipPathUnits="userSpaceOnUse"
       id="clipPath28">
      <path
         d="M 806.375,1473.61 C 461.859,1473.62 181.984,1193.74 181.984,849.227 181.988,504.391 461.531,224.852 806.367,224.852 v 42.57 c 0,18.129 -14.125,33.117 -32.222,34.168 -136.247,7.832 -263.114,65.301 -359.59,163.699 -98.516,100.473 -154.879,235.891 -156.711,376.59 -1.973,151.711 57.172,294.511 165.836,400.391 100.781,98.21 236.39,154.11 377.097,155.51 148.614,1.47 288.563,-55.72 393.493,-160.65 95.99,-95.99 152.02,-221.29 159.75,-355.712 1.04,-18.086 16.05,-32.188 34.16,-32.188 h 42.57 c 0,344.84 -279.54,624.38 -624.375,624.38 z m -6.301,-182.39 C 561.996,1287.91 367.695,1093.61 364.383,855.527 360.945,608.52 560.145,407.199 806.367,407.199 v 43.012 c 0,17.961 -13.89,32.617 -31.789,34.168 -193.566,16.723 -344.555,184.668 -333.898,384.773 9.886,185.668 160.101,335.878 345.765,345.768 200.106,10.66 368.055,-140.33 384.775,-333.897 1.55,-17.898 16.21,-31.793 34.17,-31.793 h 43.01 c 0,246.22 -201.32,445.43 -448.326,441.99 z M 773.855,119.379 C 590.922,127.34 420.078,202.359 289.785,332.648 151.289,471.148 73.9727,660.551 75.8438,856.402 77.6602,1046.47 151.617,1225.03 284.73,1360.71 c 137.168,139.82 325.77,219.08 521.637,219.08 195.143,0 378.603,-75.99 516.583,-213.97 130.32,-130.32 205.34,-301.2 213.27,-484.179 0.79,-18.184 16.02,-32.411 34.22,-32.411 h 42.3 c 0,445.34 -361.02,806.36 -806.361,806.37 C 361.445,1655.61 -0.00390625,1294.16 0,849.227 0.00390625,403.891 361.023,42.8594 806.367,42.8594 v 42.3203 c 0,18.2423 -14.285,33.4103 -32.512,34.1993 z m 1578.595,451.699 30.68,90.918 c 2.29,5.805 4.73,12.672 7.33,20.613 2.59,7.934 5.04,16.563 7.33,25.879 2.59,-9.164 5.19,-17.672 7.78,-25.535 2.6,-7.863 5.04,-14.699 7.34,-20.496 l 30.91,-91.379 z m 85.19,206.113 H 2358.4 L 2229.23,443.52 h 60.46 c 6.41,0 11.79,1.71 16.15,5.152 4.35,3.43 7.36,7.289 9.04,11.558 l 19.7,58.168 h 126.88 l 19.69,-58.168 c 2.14,-4.878 5.27,-8.89 9.39,-12.019 4.12,-3.133 9.54,-4.691 16.26,-4.691 h 60 z m -489.88,-40.765 c 6.26,6.414 13.39,12.371 21.41,17.867 8.02,5.496 16.83,10.191 26.45,14.086 9.62,3.891 20,6.941 31.15,9.156 11.14,2.215 22.98,3.32 35.5,3.32 24.58,0 47.1,-4.199 67.56,-12.593 20.45,-8.399 38.01,-20.153 52.67,-35.27 14.66,-15.113 26.03,-33.094 34.12,-53.929 8.1,-20.844 12.14,-43.711 12.14,-68.594 0,-24.43 -3.74,-47.059 -11.22,-67.899 -7.48,-20.84 -18.21,-38.859 -32.18,-54.05 -13.97,-15.2 -30.99,-27.098 -51.07,-35.731 -20.08,-8.617 -42.79,-12.937 -68.13,-12.937 -27.64,0 -51.57,4.468 -71.8,13.398 -20.23,8.93 -37.06,22.172 -50.5,39.738 l 30.69,32.293 c 1.68,1.668 3.44,2.86 5.27,3.539 1.83,0.692 3.67,1.039 5.5,1.039 2.29,0 4.5,-0.5 6.64,-1.488 2.13,-1 4.12,-2.262 5.95,-3.781 4.58,-4.121 9.08,-7.52 13.52,-10.192 4.42,-2.679 9.16,-4.808 14.19,-6.418 5.04,-1.601 10.43,-2.742 16.15,-3.429 5.72,-0.692 12.17,-1.031 19.35,-1.031 10.54,0 20.53,1.75 30,5.261 9.47,3.52 18.02,8.707 25.65,15.578 7.64,6.871 14.12,15.34 19.47,25.422 5.34,10.078 9.08,21.68 11.22,34.809 h -141.99 v 55.422 H 2147 c -2.29,12.367 -5.92,23.32 -10.87,32.867 -4.97,9.539 -11.08,17.594 -18.33,24.16 -7.25,6.563 -15.53,11.524 -24.84,14.887 -9.32,3.351 -19.39,5.039 -30.24,5.039 -12.21,0 -22.09,-1.262 -29.65,-3.781 -7.56,-2.52 -13.9,-5.27 -19.01,-8.246 -5.12,-2.977 -9.47,-5.727 -13.06,-8.243 -3.59,-2.519 -7.44,-3.777 -11.56,-3.777 -4.12,0 -7.33,0.875 -9.62,2.633 -2.29,1.75 -4.28,3.699 -5.95,5.84 z M 1836.41,627.871 c -8.86,-9.621 -23.37,-14.43 -43.52,-14.43 h -40.3 v 105.813 h 40.3 c 9.77,0 18.21,-1.227 25.31,-3.664 7.1,-2.445 12.98,-5.922 17.63,-10.422 4.66,-4.504 8.14,-9.887 10.42,-16.148 2.29,-6.262 3.44,-13.207 3.44,-20.836 0,-17.254 -4.43,-30.696 -13.28,-40.313 z m 82.9,83.367 c -5.19,13.282 -13.25,24.805 -24.16,34.582 -10.92,9.766 -24.81,17.438 -41.68,23.016 -16.87,5.57 -37.07,8.355 -60.58,8.355 H 1675.18 V 443.52 h 77.41 v 111.531 h 40.3 c 23.05,0 43.02,2.777 59.89,8.359 16.87,5.57 30.8,13.309 41.8,23.238 10.99,9.93 19.15,21.832 24.5,35.731 5.34,13.891 8.02,29.16 8.02,45.805 0,15.414 -2.6,29.769 -7.79,43.054 z m -309.28,65.957 V 443.52 h -77.86 v 186.871 c 0,8.711 0.26,17.898 0.8,27.597 0.53,9.7 1.56,20.043 3.09,31.032 -3.51,-9.77 -7.33,-18.817 -11.45,-27.137 -4.12,-8.324 -8.17,-15.613 -12.14,-21.871 L 1411.02,466.648 c -1.68,-2.75 -3.71,-5.5 -6.07,-8.25 -2.37,-2.75 -5.01,-5.226 -7.9,-7.437 -2.9,-2.211 -6.04,-4.012 -9.39,-5.383 -3.36,-1.379 -6.87,-2.058 -10.54,-2.058 h -58.4 v 333.675 h 77.87 V 590.539 c 0,-8.699 -0.23,-17.898 -0.69,-27.59 -0.46,-9.699 -1.53,-20.039 -3.2,-31.027 3.51,9.609 7.32,18.578 11.45,26.906 4.12,8.32 8.16,15.613 12.14,21.871 l 101.45,173.364 c 1.68,2.746 3.7,5.496 6.07,8.246 2.36,2.746 5,5.226 7.9,7.441 2.9,2.211 6.03,4.008 9.39,5.383 3.36,1.375 6.87,2.062 10.53,2.062 z m -356.45,0 V 443.52 h -68.24 v 191.91 c 0,4.429 0.11,9.242 0.34,14.429 0.23,5.192 0.65,10.457 1.26,15.801 l -88.63,-171.531 c -2.75,-5.348 -6.45,-9.391 -11.11,-12.141 -4.65,-2.75 -9.96,-4.117 -15.91,-4.117 h -10.54 c -5.95,0 -11.26,1.367 -15.92,4.117 -4.65,2.75 -8.35,6.793 -11.1,12.141 l -88.632,171.988 c 0.457,-5.496 0.836,-10.879 1.144,-16.137 0.309,-5.269 0.461,-10.121 0.461,-14.55 V 443.52 h -68.25 v 333.675 h 59.086 c 3.356,0 6.297,-0.082 8.82,-0.23 2.516,-0.152 4.77,-0.613 6.754,-1.375 1.981,-0.766 3.782,-1.945 5.379,-3.551 1.606,-1.601 3.168,-3.855 4.696,-6.758 l 85.882,-169.242 c 3.05,-5.801 5.99,-11.828 8.82,-18.09 2.82,-6.258 5.53,-12.668 8.13,-19.238 2.59,6.719 5.3,13.277 8.13,19.699 2.82,6.41 5.84,12.512 9.04,18.32 l 85.66,168.551 c 1.52,2.903 3.09,5.157 4.69,6.758 1.61,1.606 3.4,2.785 5.38,3.551 1.99,0.762 4.24,1.223 6.76,1.375 2.52,0.148 5.46,0.23 8.82,0.23 z"
         id="path26" />
    </clipPath>
    <linearGradient
       x1="0"
       y1="0"
       x2="1"
       y2="0"
       gradientUnits="userSpaceOnUse"
       gradientTransform="matrix(-1156.86,-1378.7,-1378.7,1156.86,1752.54,1352.06)"
       spreadMethod="pad"
       id="linearGradient38">
      <stop
         style="stop-opacity:1;stop-color:#2a607e"
         offset="0"
         id="stop30" />
      <stop
         style="stop-opacity:1;stop-color:#1a4858"
         offset="0.683784"
         id="stop32" />
      <stop
         style="stop-opacity:1;stop-color:#1a4858"
         offset="0.81502536"
         id="stop34" />
      <stop
         style="stop-opacity:1;stop-color:#153b49"
         offset="1"
         id="stop36" />
    </linearGradient>
    <clipPath
       clipPathUnits="userSpaceOnUse"
       id="clipPath48">
      <path
         d="m 656.281,971.512 c 0.012,5.859 4.739,10.582 10.578,10.566 29.719,-0.07 53.95,24.142 54.016,53.972 0.016,5.86 4.742,10.59 10.582,10.58 l 166.324,-0.4 c 5.84,-0.01 10.543,-4.76 10.532,-10.62 -0.067,-29.83 24.054,-54.157 53.773,-54.227 5.84,-0.012 10.543,-4.758 10.68,-10.617 l -0.125,-54.887 -80.243,0.191 -53.878,-93.371 -58.09,172.637 -60.114,-113.363 -64.238,0.148 z M 851.867,690.523 819.824,666.582 c -3.824,-2.543 -8.39,-2.383 -11.976,0.031 l -102.379,77.231 c -31.09,21.566 -49.574,57 -49.489,94.871 l 0.067,29.609 72.496,-0.172 50.426,89.938 58.101,-169.199 63.555,113.359 71.984,-0.172 -0.144,-64.109 c -0.027,-12.414 -2.086,-24.551 -5.891,-36.028 0.551,-0.187 1.156,-0.304 1.68,-0.519 3.086,-1.281 5.887,-3.262 8.383,-5.949 0.715,-0.77 1.426,-1.653 2.129,-2.598 4.808,13.281 7.422,27.438 7.453,41.945 l 0.324,143.563 c -0.148,6.336 -5.262,11.469 -11.609,11.48 -32.301,0.078 -58.524,26.377 -58.45,58.627 0.016,6.33 -5.097,11.47 -11.445,11.48 l -180.793,0.42 c -6.344,0.02 -11.48,-5.09 -11.496,-11.42 -0.074,-32.25 -26.414,-58.427 -58.715,-58.349 -6.344,0.016 -11.484,-5.094 -11.5,-11.426 l -0.32,-143.566 c -0.094,-40.941 19.996,-79.246 53.793,-102.559 l 111.281,-83.5 c 3.899,-2.609 8.863,-2.781 13.016,-0.031 l 31.562,23.457 z"
         id="path46" />
    </clipPath>
    <linearGradient
       x1="0"
       y1="0"
       x2="1"
       y2="0"
       gradientUnits="userSpaceOnUse"
       gradientTransform="matrix(-249.412,-297.238,-297.238,249.412,935.997,1037.49)"
       spreadMethod="pad"
       id="linearGradient58">
      <stop
         style="stop-opacity:1;stop-color:#2a607e"
         offset="0"
         id="stop50" />
      <stop
         style="stop-opacity:1;stop-color:#1a4858"
         offset="0.683784"
         id="stop52" />
      <stop
         style="stop-opacity:1;stop-color:#1a4858"
         offset="0.81502536"
         id="stop54" />
      <stop
         style="stop-opacity:1;stop-color:#153b49"
         offset="1"
         id="stop56" />
    </linearGradient>
    <linearGradient
       x1="0"
       y1="0"
       x2="1"
       y2="0"
       gradientUnits="userSpaceOnUse"
       gradientTransform="matrix(-255.84,304.898,-304.898,-255.84,940.318,-874.83)"
       spreadMethod="pad"
       id="linearGradient66">
      <stop
         style="stop-opacity:1;stop-color:#2a607e"
         offset="0"
         id="stop62" />
      <stop
         style="stop-opacity:1;stop-color:#1a4858"
         offset="1"
         id="stop64" />
    </linearGradient>
  </defs>
  <sodipodi:namedview
     id="namedview4"
     pagecolor="#ffffff"
     bordercolor="#000000"
     borderopacity="0.25"
     inkscape:showpageshadow="2"
     inkscape:pageopacity="0.0"
     inkscape:pagecheckerboard="0"
     inkscape:deskcolor="#d1d1d1" />
  <g
     id="g8"
     inkscape:groupmode="layer"
     inkscape:label="ink_ext_XXXXXX"
     transform="matrix(1.3333333,0,0,-1.3333333,0,220.74667)">
    <g
       id="g10"
       transform="scale(0.1)">
      <g
         id="g12"
         transform="scale(10)">
        <text
           xml:space="preserve"
           transform="matrix(1,0,0,-1,86.4063,29.7441)"
           style="font-variant:normal;font-weight:300;font-size:13.2668px;font-family:PFSquareSansPro;-inkscape-font-specification:PFSquareSansPro-Light;writing-mode:lr-tb;fill:#231f20;fill-opacity:1;fill-rule:nonzero;stroke:none"
           id="text20"><tspan
             x="0 7.1318431 14.22461 20.195799 26.359371 33.662579 40.924797 47.087883 53.577141 60.879875"
             y="0"
             sodipodi:role="line"
             id="tspan14">Российский</tspan><tspan
             x="0 6.0376 13.143074 19.247068 26.456047 33.487289 40.847641 47.96579 53.996067 61.260712 67.980438 75.040009 81.20311 87.692368 94.995087"
             y="13.2672"
             sodipodi:role="line"
             id="tspan16">технологический</tspan><tspan
             x="0 6.5483398 13.798341 21.114744 28.008301 34.959965 42.191418 48.355476 55.739265 61.776371 68.802742"
             y="26.533199"
             sodipodi:role="line"
             id="tspan18">университет</tspan></text>
      </g>
      <g
         id="g22">
        <g
           id="g24"
           clip-path="url(#clipPath28)">
          <path
             d="M 806.375,1473.61 C 461.859,1473.62 181.984,1193.74 181.984,849.227 181.988,504.391 461.531,224.852 806.367,224.852 v 42.57 c 0,18.129 -14.125,33.117 -32.222,34.168 -136.247,7.832 -263.114,65.301 -359.59,163.699 -98.516,100.473 -154.879,235.891 -156.711,376.59 -1.973,151.711 57.172,294.511 165.836,400.391 100.781,98.21 236.39,154.11 377.097,155.51 148.614,1.47 288.563,-55.72 393.493,-160.65 95.99,-95.99 152.02,-221.29 159.75,-355.712 1.04,-18.086 16.05,-32.188 34.16,-32.188 h 42.57 c 0,344.84 -279.54,624.38 -624.375,624.38 z m -6.301,-182.39 C 561.996,1287.91 367.695,1093.61 364.383,855.527 360.945,608.52 560.145,407.199 806.367,407.199 v 43.012 c 0,17.961 -13.89,32.617 -31.789,34.168 -193.566,16.723 -344.555,184.668 -333.898,384.773 9.886,185.668 160.101,335.878 345.765,345.768 200.106,10.66 368.055,-140.33 384.775,-333.897 1.55,-17.898 16.21,-31.793 34.17,-31.793 h 43.01 c 0,246.22 -201.32,445.43 -448.326,441.99 z M 773.855,119.379 C 590.922,127.34 420.078,202.359 289.785,332.648 151.289,471.148 73.9727,660.551 75.8438,856.402 77.6602,1046.47 151.617,1225.03 284.73,1360.71 c 137.168,139.82 325.77,219.08 521.637,219.08 195.143,0 378.603,-75.99 516.583,-213.97 130.32,-130.32 205.34,-301.2 213.27,-484.179 0.79,-18.184 16.02,-32.411 34.22,-32.411 h 42.3 c 0,445.34 -361.02,806.36 -806.361,806.37 C 361.445,1655.61 -0.00390625,1294.16 0,849.227 0.00390625,403.891 361.023,42.8594 806.367,42.8594 v 42.3203 c 0,18.2423 -14.285,33.4103 -32.512,34.1993 z m 1578.595,451.699 30.68,90.918 c 2.29,5.805 4.73,12.672 7.33,20.613 2.59,7.934 5.04,16.563 7.33,25.879 2.59,-9.164 5.19,-17.672 7.78,-25.535 2.6,-7.863 5.04,-14.699 7.34,-20.496 l 30.91,-91.379 z m 85.19,206.113 H 2358.4 L 2229.23,443.52 h 60.46 c 6.41,0 11.79,1.71 16.15,5.152 4.35,3.43 7.36,7.289 9.04,11.558 l 19.7,58.168 h 126.88 l 19.69,-58.168 c 2.14,-4.878 5.27,-8.89 9.39,-12.019 4.12,-3.133 9.54,-4.691 16.26,-4.691 h 60 z m -489.88,-40.765 c 6.26,6.414 13.39,12.371 21.41,17.867 8.02,5.496 16.83,10.191 26.45,14.086 9.62,3.891 20,6.941 31.15,9.156 11.14,2.215 22.98,3.32 35.5,3.32 24.58,0 47.1,-4.199 67.56,-12.593 20.45,-8.399 38.01,-20.153 52.67,-35.27 14.66,-15.113 26.03,-33.094 34.12,-53.929 8.1,-20.844 12.14,-43.711 12.14,-68.594 0,-24.43 -3.74,-47.059 -11.22,-67.899 -7.48,-20.84 -18.21,-38.859 -32.18,-54.05 -13.97,-15.2 -30.99,-27.098 -51.07,-35.731 -20.08,-8.617 -42.79,-12.937 -68.13,-12.937 -27.64,0 -51.57,4.468 -71.8,13.398 -20.23,8.93 -37.06,22.172 -50.5,39.738 l 30.69,32.293 c 1.68,1.668 3.44,2.86 5.27,3.539 1.83,0.692 3.67,1.039 5.5,1.039 2.29,0 4.5,-0.5 6.64,-1.488 2.13,-1 4.12,-2.262 5.95,-3.781 4.58,-4.121 9.08,-7.52 13.52,-10.192 4.42,-2.679 9.16,-4.808 14.19,-6.418 5.04,-1.601 10.43,-2.742 16.15,-3.429 5.72,-0.692 12.17,-1.031 19.35,-1.031 10.54,0 20.53,1.75 30,5.261 9.47,3.52 18.02,8.707 25.65,15.578 7.64,6.871 14.12,15.34 19.47,25.422 5.34,10.078 9.08,21.68 11.22,34.809 h -141.99 v 55.422 H 2147 c -2.29,12.367 -5.92,23.32 -10.87,32.867 -4.97,9.539 -11.08,17.594 -18.33,24.16 -7.25,6.563 -15.53,11.524 -24.84,14.887 -9.32,3.351 -19.39,5.039 -30.24,5.039 -12.21,0 -22.09,-1.262 -29.65,-3.781 -7.56,-2.52 -13.9,-5.27 -19.01,-8.246 -5.12,-2.977 -9.47,-5.727 -13.06,-8.243 -3.59,-2.519 -7.44,-3.777 -11.56,-3.777 -4.12,0 -7.33,0.875 -9.62,2.633 -2.29,1.75 -4.28,3.699 -5.95,5.84 z M 1836.41,627.871 c -8.86,-9.621 -23.37,-14.43 -43.52,-14.43 h -40.3 v 105.813 h 40.3 c 9.77,0 18.21,-1.227 25.31,-3.664 7.1,-2.445 12.98,-5.922 17.63,-10.422 4.66,-4.504 8.14,-9.887 10.42,-16.148 2.29,-6.262 3.44,-13.207 3.44,-20.836 0,-17.254 -4.43,-30.696 -13.28,-40.313 z m 82.9,83.367 c -5.19,13.282 -13.25,24.805 -24.16,34.582 -10.92,9.766 -24.81,17.438 -41.68,23.016 -16.87,5.57 -37.07,8.355 -60.58,8.355 H 1675.18 V 443.52 h 77.41 v 111.531 h 40.3 c 23.05,0 43.02,2.777 59.89,8.359 16.87,5.57 30.8,13.309 41.8,23.238 10.99,9.93 19.15,21.832 24.5,35.731 5.34,13.891 8.02,29.16 8.02,45.805 0,15.414 -2.6,29.769 -7.79,43.054 z m -309.28,65.957 V 443.52 h -77.86 v 186.871 c 0,8.711 0.26,17.898 0.8,27.597 0.53,9.7 1.56,20.043 3.09,31.032 -3.51,-9.77 -7.33,-18.817 -11.45,-27.137 -4.12,-8.324 -8.17,-15.613 -12.14,-21.871 L 1411.02,466.648 c -1.68,-2.75 -3.71,-5.5 -6.07,-8.25 -2.37,-2.75 -5.01,-5.226 -7.9,-7.437 -2.9,-2.211 -6.04,-4.012 -9.39,-5.383 -3.36,-1.379 -6.87,-2.058 -10.54,-2.058 h -58.4 v 333.675 h 77.87 V 590.539 c 0,-8.699 -0.23,-17.898 -0.69,-27.59 -0.46,-9.699 -1.53,-20.039 -3.2,-31.027 3.51,9.609 7.32,18.578 11.45,26.906 4.12,8.32 8.16,15.613 12.14,21.871 l 101.45,173.364 c 1.68,2.746 3.7,5.496 6.07,8.246 2.36,2.746 5,5.226 7.9,7.441 2.9,2.211 6.03,4.008 9.39,5.383 3.36,1.375 6.87,2.062 10.53,2.062 z m -356.45,0 V 443.52 h -68.24 v 191.91 c 0,4.429 0.11,9.242 0.34,14.429 0.23,5.192 0.65,10.457 1.26,15.801 l -88.63,-171.531 c -2.75,-5.348 -6.45,-9.391 -11.11,-12.141 -4.65,-2.75 -9.96,-4.117 -15.91,-4.117 h -10.54 c -5.95,0 -11.26,1.367 -15.92,4.117 -4.65,2.75 -8.35,6.793 -11.1,12.141 l -88.632,171.988 c 0.457,-5.496 0.836,-10.879 1.144,-16.137 0.309,-5.269 0.461,-10.121 0.461,-14.55 V 443.52 h -68.25 v 333.675 h 59.086 c 3.356,0 6.297,-0.082 8.82,-0.23 2.516,-0.152 4.77,-0.613 6.754,-1.375 1.981,-0.766 3.782,-1.945 5.379,-3.551 1.606,-1.601 3.168,-3.855 4.696,-6.758 l 85.882,-169.242 c 3.05,-5.801 5.99,-11.828 8.82,-18.09 2.82,-6.258 5.53,-12.668 8.13,-19.238 2.59,6.719 5.3,13.277 8.13,19.699 2.82,6.41 5.84,12.512 9.04,18.32 l 85.66,168.551 c 1.52,2.903 3.09,5.157 4.69,6.758 1.61,1.606 3.4,2.785 5.38,3.551 1.99,0.762 4.24,1.223 6.76,1.375 2.52,0.148 5.46,0.23 8.82,0.23 h 59.08"
             style="fill:url(#linearGradient38);fill-opacity:1;fill-rule:nonzero;stroke:none"
             id="path40" />
        </g>
      </g>
      <g
         id="g42">
        <g
           id="g44"
           clip-path="url(#clipPath48)">
          <path
             d="m 656.281,971.512 c 0.012,5.859 4.739,10.582 10.578,10.566 29.719,-0.07 53.95,24.142 54.016,53.972 0.016,5.86 4.742,10.59 10.582,10.58 l 166.324,-0.4 c 5.84,-0.01 10.543,-4.76 10.532,-10.62 -0.067,-29.83 24.054,-54.157 53.773,-54.227 5.84,-0.012 10.543,-4.758 10.68,-10.617 l -0.125,-54.887 -80.243,0.191 -53.878,-93.371 -58.09,172.637 -60.114,-113.363 -64.238,0.148 z M 851.867,690.523 819.824,666.582 c -3.824,-2.543 -8.39,-2.383 -11.976,0.031 l -102.379,77.231 c -31.09,21.566 -49.574,57 -49.489,94.871 l 0.067,29.609 72.496,-0.172 50.426,89.938 58.101,-169.199 63.555,113.359 71.984,-0.172 -0.144,-64.109 c -0.027,-12.414 -2.086,-24.551 -5.891,-36.028 0.551,-0.187 1.156,-0.304 1.68,-0.519 3.086,-1.281 5.887,-3.262 8.383,-5.949 0.715,-0.77 1.426,-1.653 2.129,-2.598 4.808,13.281 7.422,27.438 7.453,41.945 l 0.324,143.563 c -0.148,6.336 -5.262,11.469 -11.609,11.48 -32.301,0.078 -58.524,26.377 -58.45,58.627 0.016,6.33 -5.097,11.47 -11.445,11.48 l -180.793,0.42 c -6.344,0.02 -11.48,-5.09 -11.496,-11.42 -0.074,-32.25 -26.414,-58.427 -58.715,-58.349 -6.344,0.016 -11.484,-5.094 -11.5,-11.426 l -0.32,-143.566 c -0.094,-40.941 19.996,-79.246 53.793,-102.559 l 111.281,-83.5 c 3.899,-2.609 8.863,-2.781 13.016,-0.031 l 31.562,23.457 v 17.527"
             style="fill:url(#linearGradient58);fill-opacity:1;fill-rule:nonzero;stroke:none"
             id="path60" />
        </g>
      </g>
      <path
         d="m 656.281,971.512 c 0.012,5.859 4.739,10.582 10.578,10.566 29.719,-0.07 53.95,24.142 54.016,53.972 0.016,5.86 4.742,10.59 10.582,10.58 l 166.324,-0.4 c 5.84,-0.01 10.543,-4.76 10.532,-10.62 -0.067,-29.83 24.054,-54.157 53.773,-54.227 5.84,-0.012 10.543,-4.758 10.68,-10.617 l -0.125,-54.887 -80.243,0.191 -53.878,-93.371 -58.09,172.637 -60.114,-113.363 -64.238,0.148 z M 851.867,690.523 819.824,666.582 c -3.824,-2.543 -8.39,-2.383 -11.976,0.031 l -102.379,77.231 c -31.09,21.566 -49.574,57 -49.489,94.871 l 0.067,29.609 72.496,-0.172 50.426,89.938 58.101,-169.199 63.555,113.359 71.984,-0.172 -0.144,-64.109 c -0.027,-12.414 -2.086,-24.551 -5.891,-36.028 0.551,-0.187 1.156,-0.304 1.68,-0.519 3.086,-1.281 5.887,-3.262 8.383,-5.949 0.715,-0.77 1.426,-1.653 2.129,-2.598 4.808,13.281 7.422,27.438 7.453,41.945 l 0.324,143.563 c -0.148,6.336 -5.262,11.469 -11.609,11.48 -32.301,0.078 -58.524,26.377 -58.45,58.627 0.016,6.33 -5.097,11.47 -11.445,11.48 l -180.793,0.42 c -6.344,0.02 -11.48,-5.09 -11.496,-11.42 -0.074,-32.25 -26.414,-58.427 -58.715,-58.349 -6.344,0.016 -11.484,-5.094 -11.5,-11.426 l -0.32,-143.566 c -0.094,-40.941 19.996,-79.246 53.793,-102.559 l 111.281,-83.5 c 3.899,-2.609 8.863,-2.781 13.016,-0.031 l 31.562,23.457 z"
         style="fill:none;stroke:url(#linearGradient66);stroke-width:10;stroke-linecap:butt;stroke-linejoin:miter;stroke-miterlimit:10;stroke-dasharray:none;stroke-opacity:1"
         id="path68" />
    </g>
  </g>
</svg>
